<svg width="65" height="115" viewBox="0 0 65 115" fill="none" xmlns="http://www.w3.org/2000/svg">
<path d="M61.1315 7.18029L21.9116 0.06137C21.6661 0 21.2365 0 20.9909 0C18.2904 0 15.958 2.14795 15.958 4.97097V7.9781H5.21705C2.51646 7.9781 0 10.1874 0 12.8877V101.629C0 104.329 2.51646 106.784 5.21705 106.784H15.958V109.484C15.958 112.246 18.3517 114.455 20.9909 114.455C21.2978 114.455 21.6047 114.455 21.9116 114.394L61.0702 107.336C63.4025 106.907 64.9983 104.881 64.9983 102.488V12.0285C65.0597 9.63509 63.4639 7.54851 61.1315 7.18029ZM5.21705 103.04C4.5419 103.04 3.68262 102.242 3.68262 101.567V12.8263C3.68262 12.1513 4.5419 11.5989 5.21705 11.5989H15.958V103.04H5.21705ZM61.377 102.365C61.377 102.979 61.0702 103.531 60.4564 103.593L21.2365 110.65H20.9296C20.3158 110.65 19.5793 110.159 19.5793 109.361V4.97097C19.6407 4.17316 20.3772 3.6822 20.9909 3.6822H21.2978L60.4564 10.7397C61.0702 10.8625 61.377 11.3534 61.377 11.9671V102.365Z" fill="white"/>
<path d="M34.3711 60.0811H28.8472C27.8038 60.0811 27.0059 59.2833 27.0059 58.24C27.0059 57.1967 27.8038 56.3989 28.8472 56.3989H34.3711C35.4145 56.3989 36.2124 57.1967 36.2124 58.24C36.2124 59.2833 35.4145 60.0811 34.3711 60.0811ZM28.8472 47.8071C28.3562 47.8071 27.8651 47.623 27.5583 47.2547C27.19 46.8865 27.0059 46.4569 27.0059 45.966C27.0059 45.475 27.19 44.9841 27.5583 44.6772C28.2334 44.0021 29.4609 44.0021 30.1361 44.6772C30.5043 45.0454 30.6885 45.475 30.6885 45.966C30.6885 46.4569 30.5043 46.9479 30.1361 47.2547C29.8292 47.623 29.3382 47.8071 28.8472 47.8071Z" fill="white"/>
</svg>
