<svg width="50" height="60" viewBox="0 0 50 60" fill="none" xmlns="http://www.w3.org/2000/svg">
<path d="M17.7527 15.6086L18.6689 14.0242L18.2856 12.5874L19.7341 12.1975L20.2775 14.2351L19.8025 15.0566L23.0052 16.9028L21.6254 19.2893L23.6091 26.7278L23.6494 26.717L25.0978 26.3269L27.0106 33.4998L28.9061 26.459L30.3554 26.8457L30.3926 26.8557L33.5422 15.1565C33.9785 13.5361 35.6465 12.5732 37.2679 13.0056L36.878 14.4541C36.057 14.2351 35.2124 14.7227 34.9915 15.5432L31.8421 27.2422L31.8791 27.252L33.3284 27.6384L31.4261 34.7043L36.4898 29.6406L37.5764 30.727L48.2317 20.0718L49.2924 21.1323L38.637 31.7876L38.6633 31.814L39.7239 32.8748L32.9583 39.6401C32.7895 39.1409 32.563 38.657 32.2787 38.1987L37.6026 32.8748L36.4898 31.762L31.2963 36.9556C31.2892 36.9485 31.2821 36.9412 31.275 36.9341L29.6972 35.3562L31.4891 28.7004L29.9655 28.2939L28.3819 34.1763L25.7214 34.4868L24.0359 28.1663L22.5072 28.5779L24.1325 34.6724L22.627 34.8479L20.6723 27.5183L22.1606 27.1177L20.0167 19.0781L20.9555 17.4548L17.7527 15.6086Z" fill="white"/>
<path fill-rule="evenodd" clip-rule="evenodd" d="M29.3051 39.5972C30.8361 41.1282 30.8327 43.6138 29.2975 45.1489C27.7624 46.6841 25.2768 46.6875 23.7458 45.1565C22.2148 43.6257 22.2182 41.1401 23.7534 39.605C25.2885 38.0696 27.7741 38.0664 29.3051 39.5972ZM28.2445 40.658C29.187 41.6003 29.189 43.1362 28.2369 44.0884C27.2848 45.0405 25.7489 45.0383 24.8065 44.0959C23.864 43.1536 23.8619 41.6177 24.8141 40.6655C25.7661 39.7134 27.302 39.7156 28.2445 40.658Z" fill="white"/>
<path fill-rule="evenodd" clip-rule="evenodd" d="M22.4876 34.8645L28.503 34.1624L31.2751 36.9343C34.0181 39.6775 34.012 44.1309 31.2615 46.8813C28.511 49.6318 24.0576 49.6379 21.3146 46.8948L1.91004 27.4902C-0.641599 24.9387 -0.635954 20.7959 1.92267 18.2373L7.25034 12.9097L11.8705 17.5298L8.51172 20.8887L22.4876 34.8645ZM27.9557 35.7363L30.2144 37.9951C32.3689 40.1497 32.3683 43.6531 30.2008 45.8206C28.0334 47.988 24.5298 47.9888 22.3753 45.8342L2.97067 26.4297C1.00757 24.4666 1.00775 21.2737 2.98331 19.2981L7.25034 15.031L9.74915 17.5298L6.39041 20.8887L21.9404 36.4385L27.9557 35.7363Z" fill="white"/>
<path d="M26.9686 0.335266L46.5453 6.09161C47.9905 6.51642 48.9999 7.86237 48.9997 9.36481V19.4256L48.2317 18.6578L46.2617 20.6277V9.36456C46.2617 9.06403 46.0598 8.79498 45.7709 8.71002L26.1941 2.95392C25.6873 2.80475 25.1661 2.73029 24.645 2.73029C24.1238 2.73029 23.6026 2.80475 23.0958 2.95392L3.51923 8.71002C3.23013 8.79498 3.0282 9.06427 3.0282 9.36456V15.7178L1.21564 17.5303C0.865601 17.8804 0.556976 18.2562 0.289856 18.6517V9.36456C0.289856 7.86212 1.29929 6.51642 2.74463 6.09137L22.3211 0.335266C23.8414 -0.111755 25.4487 -0.111755 26.9686 0.335266Z" fill="white"/>
<path d="M0.324707 27.1441C0.622803 34.0435 2.82843 40.6558 6.74881 46.3587C10.8741 52.3602 16.6152 56.9771 23.3508 59.71C23.7681 59.8795 24.2065 59.9639 24.6449 59.9639C25.0833 59.9639 25.5217 59.8792 25.9388 59.71C32.6744 56.9771 38.4155 52.3604 42.5408 46.3587C46.7662 40.2117 48.9997 33.0089 48.9997 25.5284V22.8394L46.2617 25.5775C46.2519 32.4871 44.1847 39.1382 40.2823 44.8152C36.4611 50.3743 31.1444 54.6505 24.9068 57.1812C24.7379 57.2498 24.552 57.2498 24.3831 57.1812C18.1455 54.6505 12.8287 50.3743 9.00754 44.8152C6.01575 40.463 4.1026 35.5379 3.36829 30.3629L1.203 28.1976C0.873169 27.8677 0.580414 27.5147 0.324707 27.1441Z" fill="white"/>
</svg>
