<svg width="49" height="60" viewBox="0 0 49 60" fill="none" xmlns="http://www.w3.org/2000/svg">
<path d="M46.2554 6.09146L26.6787 0.335277C25.1589 -0.111759 23.5515 -0.111759 22.0312 0.335277L2.45477 6.09134C1.00942 6.51624 0 7.86215 0 9.36453V25.5283C0 33.0088 2.23345 40.2118 6.45896 46.3587C10.5843 52.3602 16.3254 56.9771 23.061 59.7101C23.4782 59.8793 23.9166 59.964 24.355 59.964C24.7934 59.964 25.2318 59.8792 25.649 59.7101C32.3846 56.9771 38.1257 52.3604 42.251 46.3587C46.4764 40.2117 48.7098 33.0088 48.7098 25.5283V9.36464C48.7101 7.86227 47.7006 6.51624 46.2554 6.09146ZM45.9718 25.5282C45.9718 32.4553 43.9041 39.1247 39.9925 44.8151C36.1712 50.3742 30.8545 54.6504 24.617 57.1812C24.4481 57.2497 24.2621 57.2497 24.0932 57.1812C17.8557 54.6504 12.5389 50.3743 8.71768 44.8151C4.80605 39.1247 2.73834 32.4554 2.73834 25.5282V9.36453C2.73834 9.06412 2.94027 8.79499 3.22936 8.70996L22.806 2.95378C23.3127 2.80469 23.8339 2.73032 24.3551 2.73032C24.8762 2.73032 25.3975 2.80481 25.9042 2.95389L45.481 8.70996C45.7699 8.79487 45.9718 9.064 45.9718 9.36453V25.5282Z" fill="white"/>
<path d="M21 26H23.2676C23.6134 25.4021 24.2598 25 25 25C25.7402 25 26.3866 25.4021 26.7324 26H34C34.5523 26 35 26.4478 35 27C35 27.5522 34.5523 28 34 28H30C30 28.5522 29.5523 29 29 29C28.4477 29 28 28.5522 28 28H26.7324C26.3866 28.5979 25.7402 29 25 29C24.2598 29 23.6134 28.5979 23.2676 28H16C15.4477 28 15 27.5522 15 27C15 26.4478 15.4477 26 16 26H19C19 25.4478 19.4477 25 20 25C20.5523 25 21 25.4478 21 26Z" fill="white"/>
<path fill-rule="evenodd" clip-rule="evenodd" d="M36.8 30V25C36.8 22.1453 36.7973 20.1699 36.6428 18.6503C36.4919 17.1676 36.2149 16.3649 35.8225 15.7777C35.3994 15.1444 34.8556 14.6006 34.2223 14.1775C33.6351 13.7851 32.8324 13.5081 31.3497 13.3572C29.8301 13.2027 27.8547 13.2 25 13.2C22.1453 13.2 20.1699 13.2027 18.6503 13.3572C17.1676 13.5081 16.3649 13.7851 15.7777 14.1775C15.1444 14.6006 14.6006 15.1444 14.1775 15.7777C13.7851 16.3649 13.5081 17.1676 13.3572 18.6503C13.2027 20.1699 13.2 22.1453 13.2 25V30C13.2 32.8547 13.2027 34.8301 13.3572 36.3497C13.5081 37.8324 13.7851 38.6351 14.1775 39.2223C14.6006 39.8556 15.1444 40.3994 15.7777 40.8225C16.3649 41.2149 17.1676 41.4919 18.6503 41.6428C20.1699 41.7973 22.1453 41.8 25 41.8C27.8547 41.8 29.8301 41.7973 31.3497 41.6428C32.8324 41.4919 33.6351 41.2149 34.2223 40.8225C34.8556 40.3994 35.3994 39.8556 35.8225 39.2223C36.2149 38.6351 36.4919 37.8324 36.6428 36.3497C36.7973 34.8301 36.8 32.8547 36.8 30ZM12.3482 14.5554C11 16.5732 11 19.3822 11 25V30C11 35.6178 11 38.4268 12.3482 40.4446C12.9319 41.3181 13.6819 42.0681 14.5554 42.6518C16.5732 44 19.3822 44 25 44C30.6178 44 33.4268 44 35.4446 42.6518C36.3181 42.0681 37.0681 41.3181 37.6518 40.4446C39 38.4268 39 35.6178 39 30V25C39 19.3822 39 16.5732 37.6518 14.5554C37.0681 13.6819 36.3181 12.9319 35.4446 12.3482C33.4268 11 30.6178 11 25 11C19.3822 11 16.5732 11 14.5554 12.3482C13.6819 12.9319 12.9319 13.6819 12.3482 14.5554Z" fill="white"/>
</svg>
