<svg width="52" height="60" viewBox="0 0 52 60" fill="none" xmlns="http://www.w3.org/2000/svg">
<path d="M22.7127 28.3599L10.8814 19.4866C9.23626 18.2527 7.30562 18.4612 6.07549 18.594L6.05425 18.5962L5.86834 18.6165C5.26015 18.6826 4.81218 18.7305 4.40975 18.7141C3.99676 18.6975 3.79763 18.615 3.6747 18.5227C3.24285 18.199 3.05221 17.7852 3.0317 17.1904L3.0291 17.1147L3.00432 17.0435C2.25066 14.8738 3.21215 12.3606 4.38366 10.7986L4.50792 10.6328L4.15569 8.16699L3.42489 9.14136C3.10296 9.57056 1.67971 11.4683 0.781698 13.6443C0.331472 14.7351 -0.0403846 16.0203 0.00353016 17.2947C0.0496117 18.6313 0.562032 19.9756 1.85674 20.9468C2.64766 21.5398 3.52727 21.7109 4.28728 21.7417C4.93306 21.7678 5.60842 21.6936 6.16466 21.6326L6.16851 21.6318L6.37942 21.6086C7.74291 21.4614 8.48647 21.4778 9.06347 21.9104L20.5485 30.5242L22.7127 28.3599Z" fill="white"/>
<path d="M28.27 32.5278L26.1057 34.6921L37.4828 43.2249C39.2831 44.575 40.7233 46.3477 41.6764 48.3862L44.3538 54.1128L44.6607 52.644C44.8102 51.9285 44.7729 50.6033 44.4849 49.0989C44.1938 47.5786 43.6351 45.8125 42.6922 44.2119L42.6783 44.1882L42.6618 44.1663C41.7108 42.8948 40.5803 41.7605 39.3008 40.8008L28.27 32.5278Z" fill="white"/>
<path d="M39.7346 4.54673L51.3984 16.2106C51.7005 16.5126 51.6628 17.0397 51.3145 17.388L48.6238 20.0787C47.9051 20.7974 46.8136 20.8752 46.1906 20.2521L44.9877 19.0493L43.5583 20.4787L44.1779 21.0983C44.4799 21.4004 44.4423 21.9275 44.094 22.2757L40.7306 25.6391C40.7022 25.6676 40.6722 25.6931 40.6416 25.7175C40.6346 25.7231 40.6275 25.7284 40.6203 25.7339C40.5898 25.7568 40.5586 25.7782 40.5264 25.7972C40.5255 25.7977 40.5246 25.7983 40.5238 25.7988C40.4892 25.8189 40.4539 25.8361 40.418 25.8516C40.4114 25.8544 40.4048 25.8571 40.3982 25.8597C40.363 25.8739 40.3273 25.8865 40.2915 25.8963C40.2906 25.8966 40.2898 25.897 40.289 25.8972L40.287 25.8977C40.2856 25.8981 40.2842 25.8984 40.2828 25.8989L33.9201 27.6004C33.6433 27.6744 33.3672 27.6092 33.1843 27.4264L32.5647 26.8067L8.97874 50.3927C8.73985 50.6316 8.40448 50.733 8.11245 50.6545C7.99038 50.6217 7.88475 50.56 7.80136 50.4766C7.68516 50.3604 7.61231 50.2023 7.59937 50.0224L7.28465 45.6715C7.26609 45.4147 7.37194 45.1468 7.57046 44.9483L29.1384 23.3804L28.5187 22.7607C28.3358 22.5779 28.2705 22.3018 28.3446 22.025L30.0463 15.6624C30.0467 15.661 30.0471 15.6596 30.0475 15.6582L30.048 15.6562C30.0482 15.6554 30.0487 15.6545 30.0489 15.6537C30.0586 15.6178 30.0712 15.5821 30.0855 15.5468C30.0881 15.5402 30.0907 15.5337 30.0936 15.5272C30.109 15.4913 30.1263 15.4558 30.1465 15.4213C30.147 15.4205 30.1476 15.4197 30.1481 15.4189C30.167 15.3867 30.1885 15.3555 30.2115 15.3249C30.2168 15.3178 30.2222 15.3107 30.2278 15.3036C30.252 15.2731 30.2777 15.2431 30.3061 15.2147L33.6695 11.8512C34.0178 11.503 34.5449 11.4653 34.8469 11.7673L35.4665 12.3869L36.8959 10.9575L35.6931 9.75462C35.07 9.13156 35.1478 8.04004 35.8665 7.32137L38.5572 4.63063C38.9055 4.28235 39.4326 4.24471 39.7346 4.54673ZM19.0696 35.6363L19.2368 37.9477L21.0236 36.1609L20.8564 33.8495L19.0696 35.6363ZM17.6602 39.5243L17.493 37.2129L15.7062 38.9997L15.8734 41.3111L17.6602 39.5243ZM22.433 32.2729L22.6002 34.5843L24.387 32.7974L24.2198 30.4861L22.433 32.2729ZM14.2968 42.8877L14.1296 40.5763L12.3428 42.3631L12.51 44.6745L14.2968 42.8877ZM25.7964 28.9095L25.9636 31.2208L27.7504 29.434L27.5832 27.1227L25.7964 28.9095ZM9.14654 48.0379L10.9333 46.2511L10.7662 43.9397L8.97934 45.7266L9.14654 48.0379ZM29.1598 25.5461L29.327 27.8574L31.4712 25.7133L30.2319 24.474L29.1598 25.5461ZM30.0726 21.7921L34.153 25.8725L38.5316 24.7014L31.2437 17.4136L30.0726 21.7921ZM32.0302 15.6774L40.2678 23.915L42.3699 21.8129L34.1323 13.5753L32.0302 15.6774ZM36.56 13.4804L42.4648 19.3852L43.8942 17.9558L37.9894 12.0509L36.56 13.4804ZM36.96 8.41485C36.9368 8.43806 36.9343 8.4733 36.9544 8.49334L47.4518 18.9908C47.4719 19.0109 47.5071 19.0084 47.5303 18.9852L49.5904 16.9251L39.0201 6.35476L36.96 8.41485Z" fill="white"/>
<path d="M38.0885 3.61481L26.9351 0.335266C25.4152 -0.111755 23.8079 -0.111755 22.2876 0.335266L2.71112 6.09137C1.26578 6.51642 0.256348 7.86212 0.256348 9.36456V12.3741C1.17563 10.4737 2.33188 8.93219 2.62122 8.54645L2.62494 8.54156L4.80429 5.6358L5.17258 8.21393L23.0623 2.95392C23.5691 2.80475 24.0903 2.73029 24.6115 2.73029C25.1326 2.73029 25.6538 2.80475 26.1606 2.95392L35.8889 5.81427L38.0885 3.61481Z" fill="white"/>
<path d="M41.0557 4.48737L45.0872 8.51886L45.7374 8.71002C46.0262 8.79498 46.2282 9.06403 46.2282 9.36456V9.65973L48.9662 12.3978V9.36481C48.9664 7.86237 47.957 6.51642 46.5117 6.09161L41.0557 4.48737Z" fill="white"/>
<path d="M48.9662 21.0845C48.1696 21.6876 47.1242 21.8082 46.2282 21.4461V25.5281C46.2282 31.3035 44.7909 36.9 42.0461 41.899C42.5523 42.4256 43.0254 42.9827 43.4626 43.5674L43.5117 43.6329L43.554 43.7047C43.5871 43.7608 43.6197 43.8172 43.6519 43.8738C43.7223 43.9974 43.7906 44.1216 43.8567 44.2464C47.2067 38.5887 48.9662 32.1678 48.9662 25.5284V21.0845Z" fill="white"/>
<path d="M0.256348 25.5284V20.7918C0.535187 21.1334 0.866669 21.4542 1.25687 21.7469C1.82596 22.1736 2.42441 22.4236 2.99469 22.567V25.5281C2.99469 31.7962 4.68765 37.8531 7.90775 43.1649L5.9202 45.1524C2.21014 39.2786 0.256348 32.525 0.256348 25.5284Z" fill="white"/>
<path d="M10.1521 50.6458C13.8137 54.5789 18.2883 57.6695 23.3173 59.71C23.7346 59.8795 24.173 59.9639 24.6114 59.9639C25.0498 59.9639 25.4882 59.8792 25.9053 59.71C31.7238 57.3492 36.8001 53.5826 40.7339 48.732C40.3149 47.8514 39.7975 47.0252 39.1938 46.2681C35.4742 51.1214 30.5559 54.8755 24.8733 57.1812C24.7044 57.2498 24.5185 57.2498 24.3495 57.1812C19.6603 55.2786 15.4914 52.3897 12.0872 48.7108L10.1521 50.6458Z" fill="white"/>
</svg>
