<svg width="120" height="117" viewBox="0 0 120 117" fill="none" xmlns="http://www.w3.org/2000/svg">
<path d="M23.2895 6.98213C23.9074 6.98213 25.8849 7.04392 27.677 11.1838V11.3073L36.8845 31.9448C38.553 36.5172 36.5756 38.7416 32.9914 42.2635C30.5196 44.6733 27.677 47.4538 27.8623 51.4082C27.9241 53.1383 28.6657 56.1042 33.9801 63.4571C36.761 67.288 39.9743 71.1806 41.3339 72.6636C46.5865 78.4099 62.3445 90.7677 71.3666 92.9921C71.9846 93.1157 72.6026 93.2392 73.2205 93.2392C77.9788 93.2392 81.3158 89.1612 83.355 86.6896C83.6022 86.4425 83.7876 86.1953 83.973 85.9482C87.4336 81.9319 90.1526 79.9547 92.1919 79.9547C92.748 79.9547 93.366 80.0782 93.9839 80.3872L94.7873 80.7579C98.7422 82.6734 109.186 87.6783 114.253 91.2002C115.427 92.0035 115.86 92.9303 115.798 94.3514C115.551 99.2945 109 106.833 103.809 109.799C99.6692 112.085 94.9109 113.197 89.5964 113.197C73.9621 113.197 53.7548 103.002 35.4632 85.9482C17.9132 69.6359 5.80122 50.5432 3.76196 36.0846C3.02041 30.5236 7.22253 20.5757 13.4021 13.5317C16.9863 9.45368 20.8176 6.98213 23.2895 6.98213ZM23.2895 3.39838C12.7842 3.39838 -1.4289 25.0862 0.115999 36.6407C4.5653 68.3384 53.2605 116.966 89.5346 116.966C95.2199 116.966 100.658 115.792 105.54 113.073C113.511 108.625 125.129 94.2896 116.354 88.2344C110.669 84.2799 98.6804 78.5953 95.5906 77.1124C94.4165 76.5563 93.3042 76.3091 92.1919 76.3091C88.6695 76.3091 85.1471 78.966 81.1304 83.6002C79.5855 85.3921 76.6811 89.5937 73.2205 89.5937C72.9115 89.5937 72.5408 89.5319 72.2318 89.4701C64.1365 87.4929 48.9965 75.6294 44.0529 70.2538C41.7046 67.6587 31.6319 55.3627 31.5083 51.3465C31.2611 45.2294 44.6708 42.2017 40.2833 30.5854L31.0139 9.82441C29.0983 5.25204 26.3175 3.39838 23.2895 3.39838ZM117.775 67.6587H117.59C116.601 67.5351 115.86 66.6083 115.921 65.6197C116.169 63.5806 116.23 61.5416 116.23 59.5026C116.292 28.7318 91.2649 3.70733 60.4906 3.70733C56.721 3.70733 52.9515 4.07806 49.3055 4.81952C48.3168 5.00489 47.3281 4.387 47.1427 3.39838C46.9573 2.40976 47.5752 1.42114 48.564 1.23578C52.4571 0.432521 56.4738 0 60.4906 0C93.3042 0 120 26.6927 120 59.5026C120 61.6652 119.876 63.8278 119.629 66.0522C119.506 66.979 118.702 67.6587 117.775 67.6587Z" fill="white"/>
<path d="M101.832 65.8672H101.647C100.658 65.7436 99.9164 64.8168 99.9782 63.8281C100.164 62.3452 100.225 60.8623 100.225 59.4411C100.225 37.5679 82.4282 19.711 60.4906 19.711C57.8334 19.711 55.1144 19.9581 52.5189 20.5142C51.5302 20.6996 50.5415 20.0817 50.3561 19.0931C50.1707 18.1045 50.7887 17.1158 51.7774 16.9305C54.62 16.3744 57.5862 16.0654 60.4906 16.0654C84.4674 16.0654 103.933 35.5289 103.933 59.5029C103.933 61.0476 103.871 62.6542 103.686 64.2607C103.562 65.1875 102.759 65.8672 101.832 65.8672Z" fill="white"/>
<path d="M85.8887 64.137H85.7033C84.7146 64.0134 83.9731 63.0865 84.0349 62.0979C84.1585 61.2329 84.1584 60.306 84.1584 59.5028C84.1584 46.4036 73.5296 35.7759 60.4288 35.7759C58.8221 35.7759 57.2155 35.9613 55.6706 36.2702C54.6818 36.4556 53.6931 35.8377 53.5077 34.8491C53.3223 33.8605 53.9403 32.8718 54.929 32.6865C56.7211 32.3157 58.575 32.1304 60.4288 32.1304C75.5688 32.1304 87.8662 44.4263 87.8662 59.5646C87.8662 60.5532 87.8044 61.5418 87.6808 62.5922C87.619 63.4573 86.8157 64.137 85.8887 64.137Z" fill="white"/>
</svg>
