<svg width="166" height="97" viewBox="0 0 166 97" fill="none" xmlns="http://www.w3.org/2000/svg">
<path d="M164.043 59.7327H162.882C161.659 59.7327 160.497 61.1956 160.497 62.6584V70.0945H90.7956V65.8279H92.691C95.2589 65.8279 97.5212 63.5727 97.5212 61.0737V51.5652C97.5212 49.0052 95.2589 46.9329 92.691 46.9329H90.551C89.5116 36.5711 84.9871 27.0626 77.5278 19.6874C71.5359 13.7141 63.8932 9.56943 55.9448 7.67992V3.96186C55.9448 1.8895 54.2328 0 52.2151 0H38.1525C36.0737 0 34.5451 1.8895 34.5451 3.96186V7.74087C26.5967 9.69133 19.1985 13.836 13.3289 19.6874C4.76906 28.2207 0 39.5577 0 51.6871C0 76.6164 20.1768 96.9133 45.2449 96.9133H165.633C166 96.9133 166 96.5476 166 96.1209V62.6584C166 61.1956 165.266 59.7327 164.043 59.7327ZM38.2136 3.71806C38.2136 3.65711 38.2136 3.65711 38.2136 3.71806L52.2151 3.65711C52.2151 3.65711 52.2762 3.65711 52.2762 3.71806V34.133C52.2762 34.133 52.2762 34.1939 52.2151 34.1939H38.2136C38.2136 34.1939 38.1525 34.1939 38.1525 34.133V3.71806H38.2136ZM52.154 37.7901C54.2328 37.7901 55.8836 36.1444 55.8836 34.133V28.5254C64.9326 32.6092 70.8634 41.6301 70.8634 51.6871C70.8634 65.706 59.4298 77.104 45.3672 77.104C31.3046 77.104 19.8711 65.706 19.8711 51.6871C19.8711 41.8129 25.6796 32.792 34.5451 28.6473V34.133C34.5451 36.2053 36.1348 37.7901 38.1525 37.7901H52.154ZM87.1271 93.2562H45.3672C22.3779 93.2562 3.66851 74.6049 3.66851 51.6871C3.66851 40.5329 8.00958 30.1102 15.8969 22.2474C21.0939 17.0665 27.147 13.4094 34.484 11.5199V24.6855C23.4785 29.074 16.1414 39.8015 16.1414 51.6871C16.1414 67.7174 29.2258 80.7611 45.3061 80.7611C61.3864 80.7611 74.4707 67.7174 74.4707 51.6871C74.4707 39.6186 67.0114 28.8911 55.8225 24.5636V11.398C63.1595 13.2265 69.5182 16.9446 74.7764 22.2474C82.6637 30.1102 87.0048 40.5329 87.0048 51.6261V93.2562H87.1271ZM160.497 93.2562H90.7956V73.7516H98.1326V81.6754C98.1326 82.7115 98.9274 83.5039 99.9669 83.5039C101.006 83.5039 101.801 82.7115 101.801 81.6754V73.7516H110.361V87.7705C110.361 88.8067 111.156 89.5991 112.195 89.5991C113.235 89.5991 114.029 88.8067 114.029 87.7705V73.7516H122.589V81.6754C122.589 82.7115 123.384 83.5039 124.424 83.5039C125.463 83.5039 126.258 82.7115 126.258 81.6754V73.7516H134.818V87.7705C134.818 88.8067 135.613 89.5991 136.652 89.5991C137.691 89.5991 138.486 88.8067 138.486 87.7705V73.7516H147.046V81.6754C147.046 82.7115 147.841 83.5039 148.88 83.5039C149.92 83.5039 150.715 82.7115 150.715 81.6754V73.7516H160.497V93.2562Z" fill="white"/>
</svg>
